<svg id="Layer_1" data-name="Layer 1" xmlns="http://www.w3.org/2000/svg" viewBox="0 0 486.85 452.58"><defs><style>.cls-1{fill:#fff;}</style></defs><path class="cls-1" d="M676.87,372.19a208,208,0,0,1,22.66,94.67c0,116.61-95.8,211.15-214,211.15s-214-94.54-214-211.15,95.8-211.15,214-211.15a214.58,214.58,0,0,1,175.83,90.78l13.55-6c-37.12-57.57-90.32-83-134.21-94a226.4,226.4,0,0,0-165.36,21.64c-87.14,48.8-108,134.24-108,134.24-37.37,132.56,59.57,226,59.57,226,109.2,106.86,244.1,47.3,244.1,47.3,108.62-45,132.56-146.58,132.56-146.58,25.11-80-11.38-154.75-11.38-154.75L710,363.83c-15.77-1.17-34.3,6.49-34.3,6.49Z" transform="translate(-258.74 -239.64)"/><path class="cls-1" d="M387.9,640.63s91.1-182.2,274.18-265c0,0,63.95,121.91-42.48,233.45C619.6,609.1,523.68,710.12,387.9,640.63Z" transform="translate(-258.74 -239.64)"/><path class="cls-1" d="M286,484.13s43.8-101,178.11-118.55c0,0-112.7,32.7-175.19,141.32,0,0,5.84,39.71,21,55.48,0,0,102.78-162.35,332.87-214.32,0,0-75.92-123.22-231.26-65.41C411.55,282.65,281.91,327.62,286,484.13Z" transform="translate(-258.74 -239.64)"/><path class="cls-1" d="M329.8,588.79S338,604.56,366.59,625c0,0,103.36-257.68,379-277.54C745.59,347.46,479.88,321.91,329.8,588.79Zm25.48,19.59-11.46-9.18s11.46-29.58,32.33-55.49l9.86,7.8S357.34,592.32,355.28,608.38Zm36.23-64.9-9.11-7.13s21.5-31,44.13-53l7.54,9S400.16,528.72,391.51,543.48Zm50.4-59.58-6.84-8.84s24.21-21.13,51-40.91l6.5,8.62S452.65,469.88,441.91,483.9Zm57.52-47-5.5-7.65c14.37-11.46,44.79-30,44.79-30l4.89,7C528.48,414.46,499.43,436.94,499.43,436.94Zm53.05-37.61-3.9-5.58c17.7-10.43,53.43-22.47,53.43-22.47l1.83,4.37C582.06,383.23,552.48,399.33,552.48,399.33Zm59.31-27.13-1-3.21c16.35-5.58,46.85-11,46.85-11l.46,2C646.57,361.5,611.79,372.2,611.79,372.2Zm51.36-13.84-.38-1.45c18.06-5.12,48.44-6.73,48.44-6.73C699.31,350.73,663.15,358.36,663.15,358.36Z" transform="translate(-258.74 -239.64)"/></svg>